<mxfile host="app.diagrams.net" modified="2022-01-21T06:51:00.584Z" agent="5.0 (Windows NT 10.0; Win64; x64) AppleWebKit/537.36 (KHTML, like Gecko) Chrome/96.0.4664.93 Safari/537.36" etag="q13IRGzjoBXX6m1kNktB" compressed="false" version="16.2.7" type="github">
  <diagram name="Page-1" id="c7558073-3199-34d8-9f00-42111426c3f3">
    <mxGraphModel dx="944" dy="640" grid="1" gridSize="10" guides="1" tooltips="1" connect="1" arrows="1" fold="1" page="1" pageScale="1" pageWidth="826" pageHeight="1169" background="none" math="0" shadow="0">
      <root>
        <mxCell id="0" />
        <mxCell id="1" parent="0" />
        <mxCell id="X_wdacDd8i7WgnL82fPF-96" value="运行时数据区（内存模型）" style="rounded=0;whiteSpace=wrap;html=1;fillColor=#dae8fc;strokeColor=#6c8ebf;align=center;verticalAlign=top;fontStyle=1" vertex="1" parent="1">
          <mxGeometry x="250" y="360" width="470" height="290" as="geometry" />
        </mxCell>
        <mxCell id="X_wdacDd8i7WgnL82fPF-97" value="堆" style="rounded=0;whiteSpace=wrap;html=1;verticalAlign=top;fillColor=#fff2cc;strokeColor=#d6b656;" vertex="1" parent="1">
          <mxGeometry x="290" y="420" width="240" height="200" as="geometry" />
        </mxCell>
        <mxCell id="X_wdacDd8i7WgnL82fPF-98" value="方法区&lt;br&gt;（256M）" style="whiteSpace=wrap;html=1;aspect=fixed;verticalAlign=middle;fillColor=#ffe6cc;strokeColor=#d79b00;" vertex="1" parent="1">
          <mxGeometry x="580" y="420" width="110" height="110" as="geometry" />
        </mxCell>
        <mxCell id="X_wdacDd8i7WgnL82fPF-99" value="栈（线程）&lt;br&gt;-Xss 256M" style="rounded=0;whiteSpace=wrap;html=1;verticalAlign=middle;fillColor=#e1d5e7;strokeColor=#9673a6;" vertex="1" parent="1">
          <mxGeometry x="580" y="555" width="110" height="60" as="geometry" />
        </mxCell>
        <mxCell id="X_wdacDd8i7WgnL82fPF-100" value="eden&lt;br&gt;" style="rounded=0;whiteSpace=wrap;html=1;fillColor=#d5e8d4;strokeColor=#82b366;" vertex="1" parent="1">
          <mxGeometry x="305" y="450" width="90" height="60" as="geometry" />
        </mxCell>
        <mxCell id="X_wdacDd8i7WgnL82fPF-103" value="s0" style="rounded=0;whiteSpace=wrap;html=1;fillColor=#d5e8d4;strokeColor=#82b366;" vertex="1" parent="1">
          <mxGeometry x="405" y="450" width="50" height="60" as="geometry" />
        </mxCell>
        <mxCell id="X_wdacDd8i7WgnL82fPF-104" value="s1" style="rounded=0;whiteSpace=wrap;html=1;fillColor=#d5e8d4;strokeColor=#82b366;" vertex="1" parent="1">
          <mxGeometry x="468" y="450" width="50" height="60" as="geometry" />
        </mxCell>
        <mxCell id="X_wdacDd8i7WgnL82fPF-105" value="old&lt;br&gt;1G" style="whiteSpace=wrap;html=1;fillColor=#f8cecc;strokeColor=#b85450;" vertex="1" parent="1">
          <mxGeometry x="303" y="540" width="215" height="65" as="geometry" />
        </mxCell>
      </root>
    </mxGraphModel>
  </diagram>
</mxfile>
